<svg width="30" height="30" viewBox="0 0 30 30" fill="none" xmlns="http://www.w3.org/2000/svg">
<path d="M9 7.3V4.5C9 3.84948 9 3.52422 8.9462 3.25375C8.72526 2.14301 7.85699 1.27474 6.74625 1.0538C6.47578 1 6.15052 1 5.5 1C4.84948 1 4.52422 1 4.25375 1.0538C3.14301 1.27474 2.27474 2.14301 2.0538 3.25375C2 3.52422 2 3.84948 2 4.5V7.3C2 7.95052 2 8.27578 2.0538 8.54625C2.27474 9.65699 3.14301 10.5253 4.25375 10.7462C4.52422 10.8 4.84948 10.8 5.5 10.8C6.15052 10.8 6.47578 10.8 6.74625 10.7462C7.85699 10.5253 8.72526 9.65699 8.9462 8.54625C9 8.27578 9 7.95052 9 7.3Z" stroke="#E20531" stroke-width="2" stroke-linecap="round"/>
<path d="M27.2002 7.3V4.5C27.2002 3.84948 27.2002 3.52422 27.1464 3.25375C26.9255 2.14301 26.0572 1.27474 24.9464 1.0538C24.676 1 24.3507 1 23.7002 1C23.0497 1 22.7244 1 22.4539 1.0538C21.3432 1.27474 20.4749 2.14301 20.254 3.25375C20.2002 3.52422 20.2002 3.84948 20.2002 4.5V7.3C20.2002 7.95052 20.2002 8.27578 20.254 8.54625C20.4749 9.65699 21.3432 10.5253 22.4539 10.7462C22.7244 10.8 23.0497 10.8 23.7002 10.8C24.3507 10.8 24.676 10.8 24.9464 10.7462C26.0572 10.5253 26.9255 9.65699 27.1464 8.54625C27.2002 8.27578 27.2002 7.95052 27.2002 7.3Z" stroke="#E20531" stroke-width="2" stroke-linecap="round"/>
<path d="M9 25.5V22.7C9 22.0494 9 21.7242 8.9462 21.4537C8.72526 20.343 7.85699 19.4747 6.74625 19.2538C6.47578 19.2 6.15052 19.2 5.5 19.2C4.84948 19.2 4.52422 19.2 4.25375 19.2538C3.14301 19.4747 2.27474 20.343 2.0538 21.4537C2 21.7242 2 22.0494 2 22.7V25.5C2 26.1505 2 26.4757 2.0538 26.7462C2.27474 27.8569 3.14301 28.7252 4.25375 28.9462C4.52422 29 4.84948 29 5.5 29C6.15052 29 6.47578 29 6.74625 28.9462C7.85699 28.7252 8.72526 27.8569 8.9462 26.7462C9 26.4757 9 26.1505 9 25.5Z" stroke="#E20531" stroke-width="2" stroke-linecap="round"/>
<path d="M27.2002 25.5V22.7C27.2002 22.0494 27.2002 21.7242 27.1464 21.4537C26.9255 20.343 26.0572 19.4747 24.9464 19.2538C24.676 19.2 24.3507 19.2 23.7002 19.2C23.0497 19.2 22.7244 19.2 22.4539 19.2538C21.3432 19.4747 20.4749 20.343 20.254 21.4537C20.2002 21.7242 20.2002 22.0494 20.2002 22.7V25.5C20.2002 26.1505 20.2002 26.4757 20.254 26.7462C20.4749 27.8569 21.3432 28.7252 22.4539 28.9462C22.7244 29 23.0497 29 23.7002 29C24.3507 29 24.676 29 24.9464 28.9462C26.0572 28.7252 26.9255 27.8569 27.1464 26.7462C27.2002 26.4757 27.2002 26.1505 27.2002 25.5Z" stroke="#E20531" stroke-width="2" stroke-linecap="round"/>
<path d="M20.2 24.1H9" stroke="#E20531" stroke-width="2" stroke-linecap="round"/>
<path d="M20.2 5.90002H9" stroke="#E20531" stroke-width="2" stroke-linecap="round"/>
<path d="M14.6 11.5L12.5 15H16.7L14.6 18.5" stroke="#E20531" stroke-width="2" stroke-linecap="round" stroke-linejoin="round"/>
</svg>
