<svg width="30" height="30" viewBox="0 0 30 30" fill="none" xmlns="http://www.w3.org/2000/svg">
<path d="M23.4 14.7692H26.2C27.7464 14.7692 29 16.0779 29 17.6923V19.1538C29 20.7682 27.7464 22.0769 26.2 22.0769M23.4 14.7692L21.2382 7.99872C20.8571 6.8051 19.7871 6 18.5819 6H12.2M23.4 14.7692H12.2M3.8 14.7692L5.96181 7.99872C6.34293 6.8051 7.41292 6 8.61813 6H12.2M3.8 14.7692H12.2M3.8 14.7692C2.2536 14.7692 1 16.0779 1 17.6923V19.1538C1 20.7682 2.2536 22.0769 3.8 22.0769M12.2 14.7692V6M9.4 22.0769H20.6M9.4 22.0769C9.4 23.6913 8.1464 25 6.6 25C5.0536 25 3.8 23.6913 3.8 22.0769M9.4 22.0769C9.4 20.4626 8.1464 19.1538 6.6 19.1538C5.0536 19.1538 3.8 20.4626 3.8 22.0769M20.6 22.0769C20.6 23.6913 21.8536 25 23.4 25C24.9464 25 26.2 23.6913 26.2 22.0769M20.6 22.0769C20.6 20.4626 21.8536 19.1538 23.4 19.1538C24.9464 19.1538 26.2 20.4626 26.2 22.0769" stroke="#E20531" stroke-width="2"/>
</svg>
