<svg width="30" height="30" viewBox="0 0 30 30" fill="none" xmlns="http://www.w3.org/2000/svg">
<g clip-path="url(#clip0_4106_38761)">
<path d="M5.2002 10.1205C5.2002 5.08338 9.58781 1 15.0002 1C20.4126 1 24.8002 5.08338 24.8002 10.1205C24.8002 15.1181 21.6724 20.9499 16.7923 23.0354C15.6547 23.5215 14.3457 23.5215 13.2081 23.0354C8.32802 20.9499 5.2002 15.1181 5.2002 10.1205Z" stroke="#E20531" stroke-width="2"/>
<path d="M17.8002 10.8C17.8002 12.3464 16.5466 13.6 15.0002 13.6C13.4538 13.6 12.2002 12.3464 12.2002 10.8C12.2002 9.2536 13.4538 8 15.0002 8C16.5466 8 17.8002 9.2536 17.8002 10.8Z" stroke="#E20531" stroke-width="2"/>
<path d="M27.5447 19.9C28.4762 20.7435 29 21.6942 29 22.7C29 26.1794 22.732 29 15 29C7.26801 29 1 26.1794 1 22.7C1 21.6942 1.52377 20.7435 2.45525 19.9" stroke="#E20531" stroke-width="2" stroke-linecap="round"/>
</g>
<defs>
<clipPath id="clip0_4106_38761">
<rect width="30" height="30" fill="white"/>
</clipPath>
</defs>
</svg>
