<svg width="30" height="30" viewBox="0 0 30 30" fill="none" xmlns="http://www.w3.org/2000/svg">
<path d="M17.8 22.5V5.7C17.8 5.3134 17.4866 5 17.1 5H1.7C1.3134 5 1 5.3134 1 5.7V22.5C1 22.8866 1.3134 23.2 1.7 23.2H3.8M17.8 22.5C17.8 22.8866 17.4866 23.2 17.1 23.2H9.4M17.8 22.5V9.9C17.8 9.5134 18.1134 9.2 18.5 9.2H23.1101C23.2957 9.2 23.4737 9.27375 23.605 9.40503L28.795 14.595C28.9263 14.7263 29 14.9043 29 15.0899V22.5C29 22.8866 28.6866 23.2 28.3 23.2H26.2M17.8 22.5C17.8 22.8866 18.1134 23.2 18.5 23.2H20.6M3.8 23.2C3.8 24.7464 5.0536 26 6.6 26C8.1464 26 9.4 24.7464 9.4 23.2M3.8 23.2C3.8 21.6536 5.0536 20.4 6.6 20.4C8.1464 20.4 9.4 21.6536 9.4 23.2M20.6 23.2C20.6 24.7464 21.8536 26 23.4 26C24.9464 26 26.2 24.7464 26.2 23.2M20.6 23.2C20.6 21.6536 21.8536 20.4 23.4 20.4C24.9464 20.4 26.2 21.6536 26.2 23.2" stroke="#E20531" stroke-width="2"/>
</svg>
