<svg width="30" height="30" viewBox="0 0 30 30" fill="none" xmlns="http://www.w3.org/2000/svg">
<circle cx="15" cy="15" r="13" stroke="#E20531" stroke-width="2"/>
<path d="M7.19922 5.52366C8.21354 6.44734 10.303 8.97208 10.5465 11.6816C10.774 14.2142 12.4456 16.2721 14.9992 16.3C15.9806 16.3107 16.9731 15.6017 16.9705 14.6203C16.9697 14.3169 16.9197 14.0066 16.8413 13.7211C16.7323 13.3241 16.7226 12.8673 16.9492 12.4C17.7421 10.7653 19.3014 10.3262 20.537 9.43839C21.085 9.04465 21.585 8.62929 21.8054 8.29471C22.414 7.37103 23.0226 5.52366 22.7183 4.59998" stroke="#E20531" stroke-width="2"/>
<path d="M28.0008 16.3C27.5726 17.5104 27.2695 20.6875 22.4345 20.738C22.4345 20.738 18.1527 20.738 16.8682 23.1587C15.8406 25.0952 16.44 27.1932 16.8682 28" stroke="#E20531" stroke-width="2"/>
</svg>
