<svg width="30" height="30" viewBox="0 0 30 30" fill="none" xmlns="http://www.w3.org/2000/svg">
<path d="M2 12.7833C2 8.3067 2 6.06839 2.52852 5.31537C3.05704 4.56235 5.16165 3.84194 9.37088 2.40111L10.1728 2.1266C12.367 1.37553 13.4641 1 14.6 1C15.7359 1 16.833 1.37553 19.0272 2.1266L19.8291 2.40111C24.0383 3.84194 26.143 4.56235 26.6715 5.31537C27.2 6.06839 27.2 8.3067 27.2 12.7833C27.2 13.4595 27.2 14.1928 27.2 14.9879C27.2 22.8812 21.2655 26.7117 17.542 28.3382C16.532 28.7794 16.027 29 14.6 29C13.173 29 12.668 28.7794 11.658 28.3382C7.93455 26.7117 2 22.8812 2 14.9879C2 14.1928 2 13.4595 2 12.7833Z" stroke="#E20531" stroke-width="2"/>
<path d="M11.0996 15.56L13.0996 17.8L18.0996 12.2" stroke="#E20531" stroke-width="2" stroke-linecap="round" stroke-linejoin="round"/>
</svg>
