<svg width="17" height="16" viewBox="0 0 17 16" fill="none" xmlns="http://www.w3.org/2000/svg">
<path d="M8.00654 13.1566L8.00654 13.1566L4.13537 15.0074L4.69931 10.7538C4.74477 10.4109 4.63266 10.0658 4.39434 9.81515L1.43788 6.70538L5.65758 5.92728C5.99774 5.86456 6.29126 5.6513 6.45602 5.34718L8.5 1.57445L10.544 5.34718C10.7087 5.6513 11.0023 5.86456 11.3424 5.92728L15.5621 6.70538L12.6057 9.81515C12.3673 10.0658 12.2552 10.4109 12.3007 10.7538L12.8646 15.0074L8.99346 13.1566C8.6814 13.0074 8.31859 13.0074 8.00654 13.1566ZM16.0148 6.2292L16.0142 6.22983L16.0148 6.2292Z" stroke="#C7C7C7" stroke-width="1.5"/>
</svg>
