<svg width="25" height="25" viewBox="0 0 25 25" fill="none" xmlns="http://www.w3.org/2000/svg">
<path d="M22.7779 4.66663H2" stroke="#BDBDBD" stroke-width="1.5" stroke-linecap="round"/>
<path d="M20.7428 7.72217L20.1806 16.1544C19.9643 19.3993 19.8561 21.0218 18.7989 22.0108C17.7417 22.9999 16.1156 22.9999 12.8635 22.9999H11.9183C8.66621 22.9999 7.04017 22.9999 5.98293 22.0108C4.9257 21.0218 4.81754 19.3993 4.60121 16.1544L4.03906 7.72217" stroke="#BDBDBD" stroke-width="1.5" stroke-linecap="round"/>
<path d="M9.33301 10.7778L9.94412 16.8889" stroke="#BDBDBD" stroke-width="1.5" stroke-linecap="round"/>
<path d="M15.4441 10.7778L14.833 16.8889" stroke="#BDBDBD" stroke-width="1.5" stroke-linecap="round"/>
<path d="M5.66699 4.66667C5.73529 4.66667 5.76944 4.66667 5.8004 4.66588C6.80683 4.64038 7.69469 4.00044 8.03715 3.05372C8.04768 3.0246 8.05848 2.99221 8.08008 2.92741L8.19874 2.57143C8.30003 2.26754 8.35068 2.11559 8.41787 1.98658C8.68589 1.47187 9.18179 1.11445 9.75485 1.02294C9.89848 1 10.0586 1 10.379 1H14.3994C14.7198 1 14.8799 1 15.0236 1.02294C15.5966 1.11445 16.0925 1.47187 16.3606 1.98658C16.4277 2.11559 16.4784 2.26754 16.5797 2.57143L16.6984 2.92741C16.7199 2.99212 16.7308 3.02462 16.7413 3.05372C17.0837 4.00044 17.9716 4.64038 18.978 4.66588C19.009 4.66667 19.0431 4.66667 19.1114 4.66667" stroke="#BDBDBD" stroke-width="1.5"/>
</svg>
