<svg width="25" height="25" viewBox="0 0 25 25" fill="none" xmlns="http://www.w3.org/2000/svg">
<path d="M18.1822 1.13635H6.81854C3.68056 1.13635 1.13672 3.68019 1.13672 6.81817V18.1818C1.13672 21.3198 3.68056 23.8636 6.81854 23.8636H18.1822C21.3202 23.8636 23.864 21.3198 23.864 18.1818V6.81817C23.864 3.68019 21.3202 1.13635 18.1822 1.13635Z" fill="#E20531"/>
<path d="M17.0457 11.7837C17.1859 12.7295 17.0244 13.6954 16.584 14.544C16.1437 15.3926 15.447 16.0808 14.593 16.5106C13.739 16.9405 12.7712 17.0901 11.8272 16.9382C10.8833 16.7863 10.0113 16.3407 9.33524 15.6646C8.6592 14.9886 8.21353 14.1166 8.06164 13.1726C7.90975 12.2287 8.05936 11.2609 8.48921 10.4069C8.91905 9.5529 9.60723 8.85618 10.4559 8.41584C11.3045 7.9755 12.2704 7.81396 13.2161 7.9542C14.1808 8.09725 15.0739 8.54677 15.7635 9.23637C16.4531 9.92596 16.9026 10.8191 17.0457 11.7837Z" fill="#1C1B22"/>
<path d="M18.75 6.25H18.7626" stroke="#1C1B22" stroke-width="1.5" stroke-linecap="round" stroke-linejoin="round"/>
</svg>
