<svg width="25" height="25" viewBox="0 0 25 25" fill="none" xmlns="http://www.w3.org/2000/svg">
<path d="M2.35968 12.2404C2.41135 12.2145 2.46305 12.19 2.51342 12.1667C3.38925 11.761 4.27669 11.3811 5.16285 11.0012C5.21064 11.0012 5.29071 10.9457 5.33592 10.9276C5.40439 10.8978 5.47286 10.8694 5.54133 10.8397C5.67309 10.7828 5.80485 10.7273 5.93532 10.6704C6.19884 10.558 6.46106 10.4456 6.72458 10.3332L8.30182 9.65738C9.35333 9.20771 10.4061 8.75675 11.4576 8.30708C12.5091 7.85741 13.5619 7.40645 14.6134 6.95678C15.6649 6.50711 16.7177 6.05616 17.7692 5.60649C18.8207 5.15682 19.8735 4.70586 20.925 4.25619C21.1588 4.1554 21.412 4.00551 21.6626 3.96158C21.8732 3.92411 22.0786 3.85175 22.2904 3.81169C22.6922 3.73545 23.1352 3.70445 23.5202 3.87113C23.6532 3.92928 23.776 4.01069 23.878 4.11277C24.3663 4.59603 24.2978 5.3894 24.1945 6.06908C23.475 10.8061 22.7555 15.5444 22.0346 20.2815C21.9365 20.9314 21.8021 21.6447 21.2893 22.0556C20.8553 22.4032 20.2378 22.4419 19.7017 22.2946C19.1656 22.146 18.6928 21.8346 18.2291 21.5284C16.3056 20.2543 14.3809 18.9802 12.4575 17.7062C12.0002 17.4038 11.4912 17.0084 11.4964 16.4593C11.499 16.1285 11.6966 15.8339 11.8981 15.5716C13.5697 13.3904 16.3311 12.0804 18.1254 10C18.3786 9.70668 18.5775 9.1769 18.23 9.00763C18.0233 8.90684 17.7856 9.04381 17.597 9.17431C15.2253 10.8218 12.5053 12.2817 10.1336 13.9292C9.35981 14.4668 8.54858 15.0198 7.61592 15.1516C6.78143 15.2705 5.94179 15.0379 5.13443 14.8001C4.45754 14.6011 3.78193 14.397 3.10891 14.1864C2.75109 14.0752 2.38164 13.9551 2.1052 13.7031C1.82877 13.4511 1.6699 13.0273 1.83654 12.6913C1.94117 12.4807 2.14398 12.3476 2.35713 12.2391L2.35968 12.2404Z" fill="#E20531"/>
</svg>
