<svg width="25" height="26" viewBox="0 0 25 26" fill="none" xmlns="http://www.w3.org/2000/svg">
<path d="M12.8056 3C13.4732 3.00375 15.1433 3.02 16.9183 3.09126L17.5484 3.11876C19.3347 3.20251 21.1198 3.34752 22.0061 3.59379C23.1874 3.92631 24.115 4.89387 24.4287 6.12145C24.9287 8.07157 24.9912 11.8743 24.9987 12.7956L25 12.9856V13.2031C24.9912 14.1244 24.9287 17.9284 24.4287 19.8773C24.1112 21.1086 23.1824 22.0774 22.0061 22.405C21.1198 22.6512 19.3347 22.7962 17.5484 22.88L16.9183 22.9087C15.1433 22.9787 13.4732 22.9962 12.8056 22.9987L12.5119 23H12.1931C10.7805 22.9912 4.87274 22.9275 2.99265 22.405C1.81259 22.0724 0.883794 21.1049 0.570029 19.8773C0.0700036 17.9272 0.00750037 14.1244 0 13.2031V12.7956C0.00750037 11.8743 0.0700036 8.07032 0.570029 6.12145C0.887544 4.89012 1.81634 3.92131 2.9939 3.59504C4.87274 3.07125 10.7818 3.0075 12.1944 3H12.8056ZM9.99925 8.62535V17.3759L17.4996 13.0006L9.99925 8.62535Z" fill="#E20531"/>
</svg>
