<svg width="25" height="25" viewBox="0 0 25 25" fill="none" xmlns="http://www.w3.org/2000/svg">
<path fill-rule="evenodd" clip-rule="evenodd" d="M19.3527 2.62508L20.1371 2.64385C22.8351 2.70841 25 4.6728 25 7.08666V18.1978C25 20.6116 22.8351 22.576 20.1371 22.6406L19.3527 22.6593C19.3497 22.6594 20.2093 22.6367 19.8654 22.6458C19.0898 22.6663 15.1323 22.7672 12.5 22.7672C9.86774 22.7672 5.91019 22.6663 5.13455 22.6458C4.79067 22.6367 5.65036 22.6594 5.64728 22.6593L4.86292 22.6406C2.16487 22.576 0 20.6116 0 18.1978V7.08666C0 4.6728 2.16487 2.7084 4.86292 2.64385L5.64726 2.62508C5.64726 2.62508 5.21237 2.63656 5.08673 2.63988L5.13455 2.63862C5.91019 2.61814 9.86774 2.51721 12.5 2.51721C15.1323 2.51721 19.0898 2.61814 19.8655 2.63862L19.9119 2.63984C19.7845 2.63648 19.3527 2.62508 19.3527 2.62508Z" fill="#E20531"/>
<path d="M15.4408 12.4636C15.9039 12.7337 15.9039 13.4027 15.4408 13.6729L10.7119 16.4314C10.2452 16.7036 9.65918 16.367 9.65918 15.8268L9.65918 10.3097C9.65918 9.76941 10.2452 9.43281 10.7119 9.70502L15.4408 12.4636Z" fill="#1C1B22"/>
</svg>
