<svg width="20" height="20" viewBox="0 0 20 20" fill="none" xmlns="http://www.w3.org/2000/svg">
<path d="M5.39757 5.55556C5.39757 5.96977 5.73335 6.30556 6.14757 6.30556C6.56178 6.30556 6.89757 5.96977 6.89757 5.55556H5.39757ZM6.89757 14.4444C6.89757 14.0302 6.56178 13.6944 6.14757 13.6944C5.73335 13.6944 5.39757 14.0302 5.39757 14.4444H6.89757ZM7.07207 17.8062L7.42586 17.1449H7.42586L7.07207 17.8062ZM6.33212 17.0293L5.65737 17.3568L5.65737 17.3568L6.33212 17.0293ZM17.8155 17.0293L18.4902 17.3568V17.3568L17.8155 17.0293ZM17.0755 17.8062L16.7217 17.1449L16.7217 17.1449L17.0755 17.8062ZM17.0755 2.19377L16.7217 2.85508L16.7217 2.85508L17.0755 2.19377ZM17.8155 2.97068L17.1407 3.29813V3.29813L17.8155 2.97068ZM6.33212 2.97068L7.00686 3.29813L6.33212 2.97068ZM7.07207 2.19377L6.71829 1.53245V1.53245L7.07207 2.19377ZM12.0738 10.75C12.488 10.75 12.8238 10.4142 12.8238 10C12.8238 9.58579 12.488 9.25 12.0738 9.25V10.75ZM2.76116 9.25C2.34695 9.25 2.01116 9.58579 2.01116 10C2.01116 10.4142 2.34695 10.75 2.76116 10.75V9.25ZM4.24091 7.73535C4.46294 7.38567 4.35946 6.92221 4.00978 6.70018C3.6601 6.47815 3.19664 6.58163 2.97461 6.93131L4.24091 7.73535ZM2.07109 9.75347L2.70424 10.1555H2.70424L2.07109 9.75347ZM2.07109 10.2465L2.70424 9.84451L2.07109 10.2465ZM2.97461 13.0687C3.19664 13.4184 3.6601 13.5218 4.00978 13.2998C4.35946 13.0778 4.46294 12.6143 4.24091 12.2646L2.97461 13.0687ZM6.89757 5.55556V4.84444H5.39757V5.55556H6.89757ZM8.8567 2.75H15.2909V1.25H8.8567V2.75ZM17.25 4.84444V15.1556H18.75V4.84444H17.25ZM15.2909 17.25H8.8567V18.75H15.2909V17.25ZM6.89757 15.1556V14.4444H5.39757V15.1556H6.89757ZM8.8567 17.25C8.36957 17.25 8.05157 17.2494 7.8087 17.2285C7.57574 17.2085 7.48046 17.1741 7.42586 17.1449L6.71829 18.4675C7.02589 18.6321 7.34878 18.6946 7.6805 18.723C8.00233 18.7506 8.39554 18.75 8.8567 18.75V17.25ZM5.39757 15.1556C5.39757 15.6416 5.39704 16.0491 5.4229 16.3814C5.44936 16.7214 5.50684 17.0466 5.65737 17.3568L7.00686 16.7019C6.97285 16.6318 6.93805 16.5179 6.91838 16.265C6.8981 16.0044 6.89757 15.6652 6.89757 15.1556H5.39757ZM7.42586 17.1449C7.25107 17.0514 7.10226 16.8984 7.00686 16.7019L5.65737 17.3568C5.88664 17.8292 6.25589 18.2202 6.71829 18.4675L7.42586 17.1449ZM17.25 15.1556C17.25 15.6652 17.2495 16.0044 17.2292 16.265C17.2095 16.5179 17.1747 16.6318 17.1407 16.7019L18.4902 17.3568C18.6407 17.0466 18.6982 16.7214 18.7247 16.3814C18.7505 16.0491 18.75 15.6416 18.75 15.1556H17.25ZM15.2909 18.75C15.752 18.75 16.1452 18.7506 16.4671 18.723C16.7988 18.6946 17.1217 18.6321 17.4293 18.4675L16.7217 17.1449C16.6671 17.1741 16.5718 17.2085 16.3389 17.2285C16.096 17.2494 15.778 17.25 15.2909 17.25V18.75ZM17.1407 16.7019C17.0453 16.8984 16.8965 17.0514 16.7217 17.1449L17.4293 18.4675C17.8917 18.2202 18.2609 17.8292 18.4902 17.3568L17.1407 16.7019ZM15.2909 2.75C15.778 2.75 16.096 2.75064 16.3389 2.77148C16.5718 2.79146 16.6671 2.82587 16.7217 2.85508L17.4293 1.53245C17.1217 1.3679 16.7988 1.30542 16.4671 1.27697C16.1452 1.24936 15.752 1.25 15.2909 1.25V2.75ZM18.75 4.84444C18.75 4.35841 18.7505 3.95092 18.7247 3.61862C18.6982 3.27858 18.6407 2.95344 18.4902 2.64324L17.1407 3.29813C17.1747 3.36822 17.2095 3.48213 17.2292 3.73499C17.2495 3.99558 17.25 4.33483 17.25 4.84444H18.75ZM16.7217 2.85508C16.8965 2.94859 17.0453 3.10155 17.1407 3.29813L18.4902 2.64324C18.2609 2.1708 17.8917 1.77983 17.4293 1.53245L16.7217 2.85508ZM6.89757 4.84444C6.89757 4.33483 6.8981 3.99558 6.91838 3.73499C6.93805 3.48213 6.97285 3.36822 7.00686 3.29813L5.65737 2.64324C5.50684 2.95344 5.44936 3.27858 5.4229 3.61862C5.39704 3.95092 5.39757 4.35841 5.39757 4.84444H6.89757ZM8.8567 1.25C8.39554 1.25 8.00233 1.24936 7.6805 1.27697C7.34878 1.30542 7.02589 1.3679 6.71829 1.53245L7.42586 2.85508C7.48046 2.82587 7.57574 2.79146 7.8087 2.77148C8.05157 2.75064 8.36957 2.75 8.8567 2.75V1.25ZM7.00686 3.29813C7.10226 3.10155 7.25107 2.94859 7.42586 2.85508L6.71829 1.53245C6.25589 1.77983 5.88664 2.17079 5.65737 2.64324L7.00686 3.29813ZM12.0738 9.25H2.76116V10.75H12.0738V9.25ZM2.97461 6.93131L1.43794 9.35145L2.70424 10.1555L4.24091 7.73535L2.97461 6.93131ZM1.43794 10.6486L2.97461 13.0687L4.24091 12.2646L2.70424 9.84451L1.43794 10.6486ZM1.43794 9.35145C1.18735 9.74611 1.18735 10.2539 1.43794 10.6486L2.70424 9.84451C2.76525 9.9406 2.76525 10.0594 2.70424 10.1555L1.43794 9.35145Z" fill="#E20531"/>
</svg>
