<svg width="20" height="20" viewBox="0 0 20 20" fill="none" xmlns="http://www.w3.org/2000/svg">
<path d="M6 7V5C6 2.79086 7.79086 1 10 1C12.2091 1 14 2.79086 14 5V7M6.2 19H13.8C14.9201 19 15.4802 19 15.908 18.782C16.2843 18.5903 16.5903 18.2843 16.782 17.908C17 17.4802 17 16.9201 17 15.8V10.2C17 9.07989 17 8.51984 16.782 8.09202C16.5903 7.71569 16.2843 7.40973 15.908 7.21799C15.4802 7 14.9201 7 13.8 7H6.2C5.0799 7 4.51984 7 4.09202 7.21799C3.71569 7.40973 3.40973 7.71569 3.21799 8.09202C3 8.51984 3 9.07989 3 10.2V15.8C3 16.9201 3 17.4802 3.21799 17.908C3.40973 18.2843 3.71569 18.5903 4.09202 18.782C4.51984 19 5.07989 19 6.2 19Z" stroke="#E20531" stroke-width="1.5" stroke-linecap="round"/>
</svg>
