<svg width="20" height="11" viewBox="0 0 20 11" fill="none" xmlns="http://www.w3.org/2000/svg">
<path d="M1.68936 0.679536C1.52619 0.298814 1.08528 0.12245 0.704561 0.285617C0.323838 0.448784 0.147475 0.889693 0.310641 1.27042L1.68936 0.679536ZM13.2285 6.67081L12.9538 5.97292H12.9538L13.2285 6.67081ZM7.40017 7.07985C7.62607 6.73266 7.52776 6.26807 7.18057 6.04217C6.83338 5.81626 6.3688 5.91458 6.14289 6.26177L7.40017 7.07985ZM4.87136 8.21594C4.64545 8.56312 4.74377 9.02771 5.09096 9.25362C5.43815 9.47952 5.90273 9.3812 6.12864 9.03402L4.87136 8.21594ZM19.6894 1.27041C19.8525 0.889693 19.6762 0.448783 19.2954 0.285617C18.9147 0.12245 18.4738 0.298814 18.3106 0.679536L19.6894 1.27041ZM16.3 4.69093L15.7867 4.14408V4.14408L16.3 4.69093ZM17.1197 6.57126C17.4126 6.86415 17.8874 6.86415 18.1803 6.57126C18.4732 6.27837 18.4732 5.80349 18.1803 5.5106L17.1197 6.57126ZM9.25 9.52498C9.25 9.93919 9.58579 10.275 10 10.275C10.4142 10.275 10.75 9.93919 10.75 9.52498H9.25ZM13.8714 9.03402C14.0973 9.3812 14.5619 9.47952 14.909 9.25361C15.2562 9.02771 15.3545 8.56312 15.1286 8.21594L13.8714 9.03402ZM4.23033 5.22126C4.52322 4.92837 4.52322 4.45349 4.23033 4.1606C3.93744 3.86771 3.46256 3.86771 3.16967 4.1606L4.23033 5.22126ZM1.81967 5.5106C1.52678 5.80349 1.52678 6.27837 1.81967 6.57126C2.11256 6.86415 2.58744 6.86415 2.88033 6.57126L1.81967 5.5106ZM10 6.52498C7.12611 6.52498 5.06133 5.09458 3.6871 3.61464C3.0002 2.87491 2.49637 2.13281 2.16478 1.57574C1.99941 1.29791 1.87804 1.06807 1.79914 0.910269C1.75972 0.831423 1.73098 0.770734 1.71273 0.731228C1.70361 0.711481 1.69712 0.697044 1.69323 0.688298C1.69129 0.683925 1.68999 0.680977 1.68935 0.6795C1.68903 0.678762 1.68887 0.678392 1.68887 0.678396C1.68887 0.678398 1.68891 0.678493 1.68899 0.678683C1.68903 0.678778 1.68913 0.678991 1.68915 0.679039C1.68925 0.679275 1.68936 0.679536 1 0.974976C0.310641 1.27042 0.310774 1.27072 0.310916 1.27106C0.310978 1.2712 0.311132 1.27156 0.311255 1.27184C0.311502 1.27242 0.31179 1.27309 0.312121 1.27385C0.312783 1.27538 0.313613 1.27729 0.314613 1.27958C0.316612 1.28416 0.319288 1.29025 0.322644 1.2978C0.329356 1.31289 0.338794 1.33383 0.350986 1.36023C0.375365 1.41301 0.41079 1.48767 0.4575 1.58109C0.550864 1.76782 0.689654 2.03017 0.875843 2.34296C1.24738 2.96714 1.8123 3.80005 2.5879 4.63531C4.13867 6.30537 6.57389 8.02498 10 8.02498V6.52498ZM12.9538 5.97292C12.0888 6.31339 11.1077 6.52498 10 6.52498V8.02498C11.3042 8.02498 12.4712 7.77486 13.5032 7.36869L12.9538 5.97292ZM6.14289 6.26177L4.87136 8.21594L6.12864 9.03402L7.40017 7.07985L6.14289 6.26177ZM19 0.974976C18.3106 0.679536 18.3107 0.679384 18.3108 0.67924C18.3108 0.679202 18.3108 0.679065 18.3109 0.678988C18.3109 0.678836 18.311 0.678712 18.311 0.678619C18.3111 0.678432 18.3111 0.678362 18.3111 0.678411C18.3111 0.678507 18.3108 0.679072 18.3104 0.680097C18.3095 0.682148 18.3078 0.686039 18.3053 0.691702C18.3002 0.703032 18.2919 0.721444 18.2802 0.746405C18.2569 0.796344 18.2205 0.872395 18.1705 0.970303C18.0706 1.16629 17.9172 1.44883 17.7082 1.7842C17.289 2.45708 16.6533 3.33067 15.7867 4.14408L16.8133 5.23778C17.7994 4.31219 18.5138 3.3278 18.9813 2.57746C19.2158 2.20121 19.39 1.88083 19.5068 1.65179C19.5652 1.53719 19.6094 1.4452 19.6397 1.38023C19.6549 1.34774 19.6666 1.32198 19.6748 1.3035C19.6789 1.29426 19.6822 1.28684 19.6846 1.2813C19.6858 1.27853 19.6868 1.27624 19.6876 1.27442C19.688 1.27351 19.6884 1.27272 19.6887 1.27205C19.6888 1.27172 19.6889 1.27142 19.689 1.27114C19.6891 1.27101 19.6892 1.27082 19.6892 1.27076C19.6893 1.27058 19.6894 1.27041 19 0.974976ZM15.7867 4.14408C15.019 4.86466 14.0784 5.53026 12.9538 5.97292L13.5032 7.36869C14.84 6.84249 15.9379 6.05943 16.8133 5.23778L15.7867 4.14408ZM15.7697 5.22126L17.1197 6.57126L18.1803 5.5106L16.8303 4.1606L15.7697 5.22126ZM9.25 7.27498V9.52498H10.75V7.27498H9.25ZM12.5998 7.07985L13.8714 9.03402L15.1286 8.21594L13.8571 6.26177L12.5998 7.07985ZM3.16967 4.1606L1.81967 5.5106L2.88033 6.57126L4.23033 5.22126L3.16967 4.1606Z" fill="#8E8D91"/>
</svg>
