<svg width="14" height="14" viewBox="0 0 14 14" fill="none" xmlns="http://www.w3.org/2000/svg">
<path d="M7.49346 11.3646L7.16996 12.0413L7.49346 11.3646C7.1814 11.2154 6.8186 11.2154 6.50654 11.3646L6.83004 12.0413L6.50654 11.3646L3.51705 12.7939L3.95255 9.50903C3.99801 9.16615 3.8859 8.82109 3.64757 8.57041L1.36446 6.1689L4.62311 5.56802C4.96327 5.5053 5.25678 5.29204 5.42155 4.98792L7 2.07445L8.57845 4.98792C8.74322 5.29204 9.03673 5.5053 9.37689 5.56802L12.6355 6.1689L10.3524 8.57041C10.1141 8.82109 10.002 9.16614 10.0475 9.50904L10.483 12.7939L7.49346 11.3646Z" stroke="#E20531" stroke-width="1.5"/>
</svg>
