<svg width="15" height="14" viewBox="0 0 15 14" fill="none" xmlns="http://www.w3.org/2000/svg">
<path d="M7.15354 0.639489C7.30259 0.364374 7.69741 0.364375 7.84646 0.639489L9.73789 4.13065C9.79464 4.2354 9.89573 4.30885 10.0129 4.33045L13.9177 5.05048C14.2254 5.10722 14.3474 5.48272 14.1318 5.70949L11.396 8.58717C11.3139 8.67352 11.2753 8.79236 11.2909 8.91046L11.8128 12.8466C11.8539 13.1568 11.5345 13.3889 11.2522 13.2539L7.66996 11.5413C7.56248 11.4899 7.43752 11.4899 7.33004 11.5413L3.74778 13.2539C3.46549 13.3889 3.14608 13.1568 3.1872 12.8466L3.70906 8.91046C3.72471 8.79236 3.6861 8.67352 3.60401 8.58717L0.868204 5.70949C0.652614 5.48272 0.77462 5.10722 1.08233 5.05048L4.98711 4.33045C5.10426 4.30885 5.20536 4.2354 5.26211 4.13065L7.15354 0.639489Z" fill="#E20531"/>
</svg>
