<svg width="20" height="20" viewBox="0 0 20 20" fill="none" xmlns="http://www.w3.org/2000/svg">
<path d="M2.55768 9.5H1.80768H2.55768ZM2.55768 11L2.03745 11.5402C2.32789 11.8199 2.78748 11.8199 3.07791 11.5402L2.55768 11ZM4.6356 10.0402C4.93396 9.75292 4.94292 9.27813 4.6556 8.97977C4.36828 8.6814 3.8935 8.67245 3.59513 8.95976L4.6356 10.0402ZM1.52023 8.95976C1.22187 8.67245 0.747078 8.6814 0.459762 8.97977C0.172445 9.27813 0.181401 9.75292 0.479767 10.0402L1.52023 8.95976ZM16.3664 6.00133C16.5881 6.35125 17.0514 6.45524 17.4013 6.23359C17.7512 6.01194 17.8552 5.54859 17.6336 5.19867L16.3664 6.00133ZM10.3461 1.25C5.65738 1.25 1.80768 4.91723 1.80768 9.5H3.30768C3.30768 5.7985 6.43196 2.75 10.3461 2.75V1.25ZM1.80768 9.5L1.80768 11H3.30768L3.30768 9.5H1.80768ZM3.07791 11.5402L4.6356 10.0402L3.59513 8.95976L2.03745 10.4598L3.07791 11.5402ZM3.07791 10.4598L1.52023 8.95976L0.479767 10.0402L2.03745 11.5402L3.07791 10.4598ZM17.6336 5.19867C16.1298 2.82451 13.4231 1.25 10.3461 1.25V2.75C12.9051 2.75 15.1354 4.05794 16.3664 6.00133L17.6336 5.19867Z" fill="#E20531"/>
<path d="M17.4423 9L17.9626 8.45976C17.6721 8.18008 17.2125 8.18008 16.9221 8.45976L17.4423 9ZM15.3644 9.95976C15.066 10.2471 15.0571 10.7219 15.3444 11.0202C15.6317 11.3186 16.1065 11.3276 16.4049 11.0402L15.3644 9.95976ZM18.4798 11.0402C18.7781 11.3276 19.2529 11.3186 19.5402 11.0202C19.8276 10.7219 19.8186 10.2471 19.5202 9.95976L18.4798 11.0402ZM3.63359 13.9987C3.41194 13.6488 2.94859 13.5448 2.59867 13.7664C2.24875 13.9881 2.14476 14.4514 2.36641 14.8013L3.63359 13.9987ZM9.65391 18.75C14.3426 18.75 18.1923 15.0828 18.1923 10.5H16.6923C16.6923 14.2015 13.568 17.25 9.65391 17.25V18.75ZM18.1923 10.5V9H16.6923V10.5H18.1923ZM16.9221 8.45976L15.3644 9.95976L16.4049 11.0402L17.9626 9.54024L16.9221 8.45976ZM16.9221 9.54024L18.4798 11.0402L19.5202 9.95976L17.9626 8.45976L16.9221 9.54024ZM2.36641 14.8013C3.87025 17.1755 6.57688 18.75 9.65391 18.75V17.25C7.09488 17.25 4.86457 15.9421 3.63359 13.9987L2.36641 14.8013Z" fill="#E20531"/>
</svg>
