<svg width="18" height="19" viewBox="0 0 18 19" fill="none" xmlns="http://www.w3.org/2000/svg">
<path d="M10.6004 11.5C10.6004 10.1745 11.6749 9.10002 13.0004 9.10002C14.3259 9.10002 15.4004 10.1745 15.4004 11.5C15.4004 12.8255 14.3259 13.9 13.0004 13.9C11.6749 13.9 10.6004 12.8255 10.6004 11.5Z" stroke="#E20531" stroke-width="1.2"/>
<path d="M2.60037 7.49998C2.60037 8.82546 3.67489 9.89998 5.00037 9.89998C6.32585 9.89998 7.40037 8.82546 7.40037 7.49998C7.40037 6.17449 6.32585 5.09998 5.00037 5.09998C3.67489 5.09998 2.60037 6.17449 2.60037 7.49998Z" stroke="#E20531" stroke-width="1.2"/>
<path d="M12.9668 7.09998L12.9668 1.49998" stroke="#E20531" stroke-width="1.2" stroke-linecap="round"/>
<path d="M4.9668 11.9L4.9668 17.5" stroke="#E20531" stroke-width="1.2" stroke-linecap="round"/>
<path d="M12.9668 17.5L12.9668 15.9" stroke="#E20531" stroke-width="1.2" stroke-linecap="round"/>
<path d="M4.9668 1.5L4.9668 3.1" stroke="#E20531" stroke-width="1.2" stroke-linecap="round"/>
</svg>
