<svg width="30" height="30" viewBox="0 0 30 30" fill="none" xmlns="http://www.w3.org/2000/svg">
<g clip-path="url(#clip0_4088_67868)">
<path d="M15 29C7.26801 29 1 22.732 1 15C1 7.26801 7.26802 1 15 1C21.8627 1 27.5721 5.93788 28.7692 12.4545M9.08269 2.75056C9.19644 6.45335 10.2668 12.579 14.2972 9.91789C19.3352 6.59152 18.2706 7.53561 21.0587 8.10616C23.2892 8.5626 25.2664 7.41793 25.9761 6.78853M2.85889 9.02972C2.94321 10.9836 3.7683 15.3742 6.39409 17.3058C9.67633 19.7204 13.1997 18.1175 10.5881 28.0407M16.9617 18.8765L19.49 26.4552C19.9397 27.8032 21.8304 27.8467 22.34 26.5208L23.2594 24.1288C23.4131 23.7289 23.7291 23.413 24.1289 23.2593L26.521 22.3399C27.8469 21.8303 27.8033 19.9396 26.4554 19.4899L18.8766 16.9616C17.6927 16.5666 16.5668 17.6925 16.9617 18.8765Z" stroke="#E20531" stroke-width="2" stroke-linecap="round"/>
</g>
<defs>
<clipPath id="clip0_4088_67868">
<rect width="30" height="30" fill="white"/>
</clipPath>
</defs>
</svg>
