<svg width="30" height="30" viewBox="0 0 30 30" fill="none" xmlns="http://www.w3.org/2000/svg">
<g clip-path="url(#clip0_4088_67867)">
<path d="M17.8002 3.8C17.8002 5.3464 16.5466 6.6 15.0002 6.6C13.4538 6.6 12.2002 5.3464 12.2002 3.8C12.2002 2.2536 13.4538 1 15.0002 1C16.5466 1 17.8002 2.2536 17.8002 3.8Z" stroke="#E20531" stroke-width="2"/>
<path d="M6.66711 13.3889L6.98334 12.4402L6.98334 12.4402L6.66711 13.3889ZM9.71252 14.404L9.39629 15.3527L9.39629 15.3527L9.71252 14.404ZM10.8237 16.7587L9.8904 16.3997V16.3997L10.8237 16.7587ZM9.07824 21.297L10.0116 21.656L9.07824 21.297ZM23.3333 13.3889L23.0171 12.4402V12.4402L23.3333 13.3889ZM20.2879 14.404L20.6041 15.3527H20.6041L20.2879 14.404ZM19.1766 16.7587L20.11 16.3997L19.1766 16.7587ZM20.9222 21.297L19.9888 21.656L20.9222 21.297ZM12.794 23.0607L13.6623 23.5568L12.794 23.0607ZM15.0002 19.1999L15.8684 18.7038C15.6904 18.3922 15.3591 18.1999 15.0002 18.1999C14.6413 18.1999 14.31 18.3922 14.132 18.7038L15.0002 19.1999ZM22.2054 9.25596L21.9958 8.27816V8.27816L22.2054 9.25596ZM19.5488 9.82523L19.7583 10.803V10.803L19.5488 9.82523ZM10.4516 9.82523L10.6612 8.84743V8.84743L10.4516 9.82523ZM7.79503 9.25596L7.5855 10.2338L7.79503 9.25596ZM17.2064 23.0607L16.3381 23.5568L17.2064 23.0607ZM19.2539 9.88786L19.0514 8.90859L19.0514 8.90859L19.2539 9.88786ZM10.7464 9.88786L10.5439 10.8671L10.5439 10.8671L10.7464 9.88786ZM19.5974 14.6735L20.1227 15.5244L19.5974 14.6735ZM18.9457 16.0545L19.9365 15.919V15.919L18.9457 16.0545ZM10.4029 14.6735L9.87768 15.5244L9.87768 15.5244L10.4029 14.6735ZM11.0547 16.0545L12.0454 16.1899L12.0454 16.1899L11.0547 16.0545ZM6.35088 14.3376L9.39629 15.3527L10.0287 13.4553L6.98334 12.4402L6.35088 14.3376ZM9.8904 16.3997L8.14489 20.938L10.0116 21.656L11.7571 17.1177L9.8904 16.3997ZM23.0171 12.4402L19.9716 13.4553L20.6041 15.3527L23.6495 14.3376L23.0171 12.4402ZM18.2433 17.1177L19.9888 21.656L21.8555 20.938L20.11 16.3997L18.2433 17.1177ZM13.6623 23.5568L15.8684 19.6961L14.132 18.7038L11.9258 22.5646L13.6623 23.5568ZM21.9958 8.27816L19.3392 8.84743L19.7583 10.803L22.4149 10.2338L21.9958 8.27816ZM10.6612 8.84743L8.00456 8.27816L7.5855 10.2338L10.2421 10.803L10.6612 8.84743ZM14.132 19.6961L16.3381 23.5568L18.0746 22.5646L15.8684 18.7038L14.132 19.6961ZM19.3392 8.84743C19.1902 8.87937 19.1203 8.89433 19.0514 8.90859L19.4565 10.8671C19.534 10.8511 19.6119 10.8344 19.7583 10.803L19.3392 8.84743ZM10.2421 10.803C10.3885 10.8344 10.4664 10.8511 10.5439 10.8671L10.949 8.90859C10.8801 8.89433 10.8102 8.87937 10.6612 8.84743L10.2421 10.803ZM19.0514 8.90859C16.3789 9.46139 13.6215 9.46139 10.949 8.90859L10.5439 10.8671C13.4836 11.4752 16.5167 11.4752 19.4565 10.8671L19.0514 8.90859ZM11.0033 25.0999C12.1023 25.0999 13.117 24.511 13.6623 23.5568L11.9258 22.5646C11.7366 22.8956 11.3846 23.0999 11.0033 23.0999V25.0999ZM19.9888 21.656C20.2565 22.3519 19.7428 23.0999 18.9971 23.0999V25.0999C21.1463 25.0999 22.627 22.944 21.8555 20.938L19.9888 21.656ZM19.9716 13.4553C19.6582 13.5598 19.3345 13.6606 19.0722 13.8225L20.1227 15.5244C20.1142 15.5297 20.128 15.5192 20.2103 15.488C20.2966 15.4554 20.4125 15.4166 20.6041 15.3527L19.9716 13.4553ZM20.11 16.3997C20.0375 16.2113 19.9938 16.0971 19.9641 16.0097C19.9358 15.9263 19.9351 15.9091 19.9365 15.919L17.9549 16.1899C17.9967 16.4953 18.1247 16.8093 18.2433 17.1177L20.11 16.3997ZM19.0722 13.8225C18.2643 14.3212 17.8263 15.2493 17.9549 16.1899L19.9365 15.919C19.9151 15.7622 19.9881 15.6075 20.1227 15.5244L19.0722 13.8225ZM23.8002 11.3537C23.8002 11.8466 23.4847 12.2843 23.0171 12.4402L23.6495 14.3376C24.9339 13.9095 25.8002 12.7075 25.8002 11.3537H23.8002ZM8.14489 20.938C7.37337 22.944 8.85406 25.0999 11.0033 25.0999V23.0999C10.2576 23.0999 9.74391 22.3519 10.0116 21.656L8.14489 20.938ZM9.39629 15.3527C9.58785 15.4166 9.70374 15.4554 9.79005 15.488C9.87243 15.5192 9.88619 15.5297 9.87768 15.5244L10.9282 13.8225C10.6659 13.6606 10.3422 13.5598 10.0287 13.4553L9.39629 15.3527ZM11.7571 17.1177C11.8757 16.8093 12.0037 16.4953 12.0454 16.1899L10.0639 15.919C10.0652 15.9091 10.0646 15.9263 10.0363 16.0097C10.0066 16.0971 9.96288 16.2113 9.8904 16.3997L11.7571 17.1177ZM9.87768 15.5244C10.0123 15.6075 10.0853 15.7622 10.0639 15.919L12.0454 16.1899C12.1741 15.2493 11.7361 14.3212 10.9282 13.8225L9.87768 15.5244ZM4.2002 11.3537C4.2002 12.7075 5.06651 13.9095 6.35088 14.3376L6.98334 12.4402C6.51565 12.2843 6.2002 11.8466 6.2002 11.3537H4.2002ZM6.2002 11.3537C6.2002 10.6245 6.87252 10.081 7.5855 10.2338L8.00456 8.27816C6.04656 7.85859 4.2002 9.35121 4.2002 11.3537H6.2002ZM16.3381 23.5568C16.8834 24.511 17.8981 25.0999 18.9971 25.0999V23.0999C18.6158 23.0999 18.2638 22.8956 18.0746 22.5646L16.3381 23.5568ZM25.8002 11.3537C25.8002 9.35121 23.9538 7.85859 21.9958 8.27816L22.4149 10.2338C23.1279 10.081 23.8002 10.6245 23.8002 11.3537H25.8002Z" fill="#E20531"/>
<path d="M25.4352 18.5C27.652 19.6146 29 21.0865 29 22.7C29 26.1794 22.732 29 15 29C7.26801 29 1 26.1794 1 22.7C1 21.0865 2.34798 19.6146 4.56484 18.5" stroke="#E20531" stroke-width="2" stroke-linecap="round"/>
</g>
<defs>
<clipPath id="clip0_4088_67867">
<rect width="30" height="30" fill="white"/>
</clipPath>
</defs>
</svg>
