<svg width="30" height="30" viewBox="0 0 30 30" fill="none" xmlns="http://www.w3.org/2000/svg">
<g clip-path="url(#clip0_4013_2726)">
<path d="M12.2 29C18.3856 29 23.4 23.9856 23.4 17.8C23.4 11.6144 18.3856 6.59998 12.2 6.59998C6.01441 6.59998 1 11.6144 1 17.8C1 19.5297 1.39211 21.1678 2.09228 22.6303C2.33293 23.133 2.41742 23.7025 2.27338 24.2408L1.81411 25.9573C1.45214 27.3102 2.68982 28.5478 4.04269 28.1859L5.75914 27.7266C6.29751 27.5826 6.86699 27.667 7.36966 27.9077C8.83217 28.6079 10.4703 29 12.2 29Z" stroke="#E20531" stroke-width="2"/>
<path d="M23.4 18.5026C23.4931 18.4638 23.5853 18.4235 23.6768 18.3817C24.1837 18.1501 24.7525 18.0635 25.2909 18.2076L25.9573 18.3859C27.3102 18.7479 28.5479 17.5102 28.1859 16.1573L28.0076 15.4909C27.8635 14.9525 27.9501 14.3837 28.1817 13.8768C28.7072 12.7264 29 11.4474 29 10.1C29 5.07421 24.9258 1 19.9 1C16.1168 1 12.8729 3.30858 11.5 6.59384" stroke="#E20531" stroke-width="2"/>
<path d="M7.32451 17.8H7.33711M12.2115 17.8H12.2241M17.0989 17.8H17.1115" stroke="#E20531" stroke-width="2" stroke-linecap="round" stroke-linejoin="round"/>
</g>
<defs>
<clipPath id="clip0_4013_2726">
<rect width="30" height="30" fill="white"/>
</clipPath>
</defs>
</svg>
