<svg width="30" height="30" viewBox="0 0 30 30" fill="none" xmlns="http://www.w3.org/2000/svg">
<path d="M1 15.2C1 9.92027 1 7.2804 2.6402 5.6402C4.2804 4 6.92027 4 12.2 4H17.8C23.0797 4 25.7196 4 27.3598 5.6402C29 7.2804 29 9.92027 29 15.2C29 20.4797 29 23.1196 27.3598 24.7598C25.7196 26.4 23.0797 26.4 17.8 26.4H12.2C6.92027 26.4 4.2804 26.4 2.6402 24.7598C1 23.1196 1 20.4797 1 15.2Z" stroke="#E20531" stroke-width="2"/>
<path d="M12.1996 20.8H6.59961" stroke="#E20531" stroke-width="2" stroke-linecap="round"/>
<path d="M17.8002 20.8H15.7002" stroke="#E20531" stroke-width="2" stroke-linecap="round"/>
<path d="M1 12.4L29 12.4" stroke="#E20531" stroke-width="2" stroke-linecap="round"/>
</svg>
