<svg width="25" height="25" viewBox="0 0 25 25" fill="none" xmlns="http://www.w3.org/2000/svg">
<path d="M18.1822 1.13635H6.81854C3.68056 1.13635 1.13672 3.68019 1.13672 6.81817V18.1818C1.13672 21.3198 3.68056 23.8636 6.81854 23.8636H18.1822C21.3202 23.8636 23.864 21.3198 23.864 18.1818V6.81817C23.864 3.68019 21.3202 1.13635 18.1822 1.13635Z" fill="#E20531"/>
<path d="M13.2202 19.3181C13.3858 19.3181 13.5202 19.1838 13.5202 19.0181V13.1081H15.2742C15.4257 13.1081 15.5534 12.9951 15.572 12.8448L15.7981 11.0134C15.8201 10.8345 15.6806 10.6766 15.5003 10.6766H13.5202V9.12789C13.5202 8.42626 13.7086 7.94588 14.6792 7.94588H15.609C15.7747 7.94588 15.909 7.81157 15.909 7.64588V6.04661C15.909 5.89375 15.7941 5.76502 15.6419 5.75073C15.1318 5.7028 14.6197 5.67982 14.1073 5.68189C12.3224 5.68189 11.097 6.81237 11.097 8.8877V10.6721H9.39082C9.22513 10.6721 9.09082 10.8064 9.09082 10.9721V12.8035C9.09082 12.9692 9.22513 13.1035 9.39082 13.1035H11.1014V19.0181C11.1014 19.1838 11.2357 19.3181 11.4014 19.3181H13.2202Z" fill="#1C1B22"/>
</svg>
