<svg width="25" height="25" viewBox="0 0 25 25" fill="none" xmlns="http://www.w3.org/2000/svg">
<path d="M8.24163 19.3422C9.14418 19.3422 9.87584 20.0738 9.87584 20.9764C9.87584 21.8789 9.14418 22.6106 8.24163 22.6106C7.33908 22.6106 6.60742 21.8789 6.60742 20.9764C6.60742 20.0738 7.33908 19.3422 8.24163 19.3422Z" fill="white"/>
<path d="M18.0473 19.3421C18.9498 19.3421 19.6815 20.0738 19.6815 20.9763C19.6815 21.8789 18.9498 22.6106 18.0473 22.6106C17.1447 22.6106 16.4131 21.8789 16.4131 20.9763C16.4131 20.0738 17.1447 19.3421 18.0473 19.3421Z" fill="white"/>
<path d="M2.53458 3.10005L2.86626 2.15666L2.86626 2.15666L2.53458 3.10005ZM2.58168 2.05661C2.06066 1.87343 1.48979 2.1473 1.30661 2.66832C1.12343 3.18934 1.3973 3.76021 1.91832 3.94339L2.58168 2.05661ZM5.0672 4.44135L5.89284 3.87715L5.89284 3.87715L5.0672 4.44135ZM6.48557 15.6228L5.75988 16.3109L5.75988 16.3109L6.48557 15.6228ZM22.5771 10.4986L23.5566 10.7004L23.5578 10.6943L22.5771 10.4986ZM22.0327 13.1402L23.0121 13.3421V13.3421L22.0327 13.1402ZM22.6607 7.02787L21.8681 7.63761V7.63761L22.6607 7.02787ZM20.9166 16.1286L20.2849 15.3534L20.9166 16.1286ZM6.47275 10.3648V7.39968H4.47275V10.3648H6.47275ZM2.86626 2.15666L2.58168 2.05661L1.91832 3.94339L2.2029 4.04345L2.86626 2.15666ZM11.9871 17.6184H17.7645V15.6184H11.9871V17.6184ZM6.47275 7.39968C6.47275 6.63326 6.47411 5.97878 6.41625 5.44424C6.35596 4.88722 6.22343 4.36092 5.89284 3.87715L4.24157 5.00556C4.31653 5.11525 4.38677 5.27983 4.42786 5.65947C4.47139 6.06158 4.47275 6.58954 4.47275 7.39968H6.47275ZM2.2029 4.04345C2.93435 4.30061 3.40032 4.46616 3.74008 4.63287C4.05368 4.78674 4.16954 4.90016 4.24157 5.00556L5.89284 3.87715C5.55932 3.38909 5.11789 3.08113 4.62108 2.83736C4.15043 2.60642 3.55287 2.39806 2.86626 2.15666L2.2029 4.04345ZM4.47275 10.3648C4.47275 11.9429 4.48706 13.1008 4.63954 13.9911C4.80437 14.9535 5.1372 15.6541 5.75988 16.3109L7.21125 14.9348C6.89001 14.596 6.71643 14.27 6.61083 13.6535C6.49288 12.9648 6.47275 11.9916 6.47275 10.3648H4.47275ZM11.9871 15.6184C10.4382 15.6184 9.38244 15.6161 8.59131 15.5039C7.83466 15.3966 7.469 15.2067 7.21125 14.9348L5.75988 16.3109C6.44605 17.0346 7.31196 17.3425 8.31051 17.4841C9.27459 17.6208 10.4977 17.6184 11.9871 17.6184V15.6184ZM5.47275 7.39916H18.6889V5.39916H5.47275V7.39916ZM21.5977 10.2967L21.0533 12.9384L23.0121 13.3421L23.5566 10.7004L21.5977 10.2967ZM18.6889 7.39916C19.6253 7.39916 20.435 7.40049 21.0707 7.47156C21.3861 7.50681 21.6118 7.55482 21.7627 7.60785C21.9216 7.66368 21.9125 7.6953 21.8681 7.63761L23.4534 6.41814C23.1671 6.04609 22.7701 5.84194 22.4258 5.72094C22.0734 5.59715 21.6806 5.52727 21.2929 5.48394C20.5226 5.39782 19.5882 5.39916 18.6889 5.39916V7.39916ZM23.5578 10.6943C23.7411 9.77584 23.901 8.98631 23.9402 8.3501C23.9809 7.69211 23.9084 7.00962 23.4534 6.41814L21.8681 7.63761C21.8968 7.67484 21.9716 7.78037 21.944 8.22689C21.9151 8.69519 21.7913 9.32666 21.5965 10.3028L23.5578 10.6943ZM17.7645 17.6184C18.5898 17.6184 19.2993 17.6202 19.8744 17.5498C20.4767 17.4761 21.0469 17.3124 21.5483 16.9038L20.2849 15.3534C20.1852 15.4346 20.0297 15.5159 19.6314 15.5646C19.2059 15.6167 18.6399 15.6184 17.7645 15.6184V17.6184ZM21.0533 12.9384C20.8766 13.7957 20.7606 14.3497 20.6237 14.756C20.4955 15.1363 20.3846 15.2722 20.2849 15.3534L21.5483 16.9038C22.0497 16.4952 22.3252 15.9698 22.519 15.3947C22.704 14.8457 22.8455 14.1504 23.0121 13.3421L21.0533 12.9384Z" fill="white"/>
</svg>
