<svg width="25" height="25" viewBox="0 0 25 25" fill="none" xmlns="http://www.w3.org/2000/svg">
<path fill-rule="evenodd" clip-rule="evenodd" d="M2.0002 7.0431C2.00025 3.71908 4.70024 1.02454 8.02426 1.02323C11.0287 1.02205 14.4446 1.01717 17.2827 1.01219C20.602 1.00636 23.2941 3.69505 23.2941 7.01435V15.137C23.2941 18.3519 20.7606 21.0001 17.5462 21.0533C15.1125 21.0936 12.4738 21.092 10.8679 20.9557C10.4686 21.4218 9.94199 22.0343 9.5602 22.4515C9.44457 22.5773 9.33629 22.7016 9.23279 22.8205C8.71171 23.4188 8.31165 23.8781 7.7039 23.6855C7.0983 23.4991 7.1334 22.5714 7.1334 22.5714V20.888C4.29831 20.888 2.00003 18.5897 2.00007 15.7546L2.0002 7.0431ZM17.8587 15.6025V15.6114C17.3847 16.4548 16.4983 17.3869 15.5855 17.0895L15.5767 17.0762C14.6507 16.8143 12.4697 15.678 11.0917 14.5683C10.3808 14.0001 9.73134 13.3299 9.23106 12.6863C8.77906 12.1137 8.32266 11.4345 7.87943 10.6178C6.9447 8.90889 6.73845 8.14542 6.73845 8.14542C6.44442 7.22216 7.3616 6.32553 8.19979 5.84614H8.20856C8.6123 5.63308 8.99848 5.7041 9.25739 6.01926C9.25739 6.01926 9.80156 6.67619 10.0341 7.00022C10.2536 7.30206 10.5476 7.78588 10.7012 8.05665C10.9689 8.54047 10.8021 9.03317 10.5388 9.23736L10.0122 9.66348C9.74451 9.88097 9.77962 10.2849 9.77962 10.2849C9.77962 10.2849 10.5608 13.2722 13.479 14.0268C13.479 14.0268 13.8784 14.0623 14.0934 13.7915L14.5147 13.2589C14.7166 12.9925 15.2037 12.8239 15.682 13.0946C16.3271 13.4631 17.1477 14.0357 17.6919 14.555C17.9991 14.808 18.0693 15.1942 17.8587 15.6025ZM12.9656 7.13338C15.173 7.29762 16.3359 8.77129 16.292 10.6533C16.2832 11.0306 16.8537 11.0484 16.8581 10.6666C16.9064 8.51828 15.5504 6.74721 13.0051 6.56079C12.6321 6.53415 12.5926 7.10675 12.9656 7.13338ZM18.3546 11.2481C18.359 11.6298 17.7885 11.6343 17.7885 11.2526C17.7621 7.63496 15.3792 5.66416 12.4873 5.64196C12.1142 5.63752 12.1142 5.06936 12.4873 5.06936C15.7215 5.09156 18.3238 7.35088 18.3546 11.2481ZM14.8351 10.1784C14.8526 10.5601 15.4187 10.5335 15.4012 10.1517C15.3397 8.87782 14.6595 8.16761 13.4352 8.10103C13.0621 8.07884 13.027 8.65144 13.4044 8.67363C14.3348 8.7269 14.7868 9.20185 14.8351 10.1784Z" fill="#E20531"/>
</svg>
