<svg width="18" height="18" viewBox="0 0 18 18" fill="none" xmlns="http://www.w3.org/2000/svg">
<g clip-path="url(#clip0_6048_89933)">
<path d="M1.11001 10.8408C0.972567 10.2494 0.899902 9.63314 0.899902 8.9999C0.899902 8.36667 0.972567 7.7504 1.11001 7.15899M7.52718 1.03346C8.00475 0.945738 8.49697 0.899902 8.9999 0.899902C13.4734 0.899902 17.0999 4.5264 17.0999 8.9999C17.0999 13.4734 13.4734 17.0999 8.9999 17.0999C8.49697 17.0999 8.00475 17.0541 7.52718 16.9663M4.9499 1.98354C3.84508 2.62264 2.90523 3.51521 2.20984 4.58172M2.20984 13.4181C2.90523 14.4846 3.84508 15.3772 4.9499 16.0163M11.4299 7.3799L8.24323 10.5666C8.21318 10.5966 8.16502 10.5983 8.13291 10.5705L6.5699 9.21633" stroke="#E20531" stroke-width="1.2" stroke-linecap="round"/>
</g>
<defs>
<clipPath id="clip0_6048_89933">
<rect width="18" height="18" fill="white"/>
</clipPath>
</defs>
</svg>
