<svg width="31" height="30" viewBox="0 0 31 30" fill="none" xmlns="http://www.w3.org/2000/svg">
<g clip-path="url(#clip0_10183_7776)">
<path d="M17.9652 3.8C17.9652 5.3464 16.7116 6.6 15.1652 6.6C13.6188 6.6 12.3652 5.3464 12.3652 3.8C12.3652 2.2536 13.6188 1 15.1652 1C16.7116 1 17.9652 2.2536 17.9652 3.8Z" stroke="#C7C7C7" stroke-width="2"/>
<path d="M6.83215 13.389L7.14838 12.4403L7.14838 12.4403L6.83215 13.389ZM9.87756 14.4041L9.56133 15.3528L9.56133 15.3528L9.87756 14.4041ZM10.9888 16.7588L10.0554 16.3998V16.3998L10.9888 16.7588ZM9.24328 21.2971L10.1766 21.6561L9.24328 21.2971ZM23.4983 13.389L23.1821 12.4403V12.4403L23.4983 13.389ZM20.4529 14.4041L20.7691 15.3528H20.7691L20.4529 14.4041ZM19.3417 16.7588L20.275 16.3998L19.3417 16.7588ZM21.0872 21.2971L20.1538 21.6561L21.0872 21.2971ZM12.9591 23.0608L13.8273 23.5569L12.9591 23.0608ZM15.1652 19.2L16.0335 18.7038C15.8554 18.3923 15.5241 18.2 15.1652 18.2C14.8064 18.2 14.475 18.3923 14.297 18.7038L15.1652 19.2ZM22.3704 9.25602L22.1609 8.27822V8.27822L22.3704 9.25602ZM19.7138 9.82529L19.9233 10.8031V10.8031L19.7138 9.82529ZM10.6167 9.82529L10.8262 8.84749V8.84749L10.6167 9.82529ZM7.96007 9.25602L7.75054 10.2338L7.96007 9.25602ZM17.3714 23.0608L16.5032 23.5569L17.3714 23.0608ZM19.419 9.88792L19.2164 8.90865L19.2164 8.90865L19.419 9.88792ZM10.9115 9.88792L10.7089 10.8672L10.7089 10.8672L10.9115 9.88792ZM19.7625 14.6735L20.2877 15.5245L19.7625 14.6735ZM19.1108 16.0545L20.1015 15.919V15.919L19.1108 16.0545ZM10.568 14.6735L10.0427 15.5245L10.0427 15.5245L10.568 14.6735ZM11.2197 16.0545L12.2105 16.19L12.2105 16.19L11.2197 16.0545ZM6.51592 14.3376L9.56133 15.3528L10.1938 13.4554L7.14838 12.4403L6.51592 14.3376ZM10.0554 16.3998L8.30993 20.9381L10.1766 21.6561L11.9221 17.1177L10.0554 16.3998ZM23.1821 12.4403L20.1367 13.4554L20.7691 15.3528L23.8145 14.3376L23.1821 12.4403ZM18.4083 17.1177L20.1538 21.6561L22.0205 20.9381L20.275 16.3998L18.4083 17.1177ZM13.8273 23.5569L16.0335 19.6961L14.297 18.7038L12.0908 22.5646L13.8273 23.5569ZM22.1609 8.27822L19.5043 8.84749L19.9233 10.8031L22.5799 10.2338L22.1609 8.27822ZM10.8262 8.84749L8.1696 8.27822L7.75054 10.2338L10.4071 10.8031L10.8262 8.84749ZM14.297 19.6961L16.5032 23.5569L18.2396 22.5646L16.0335 18.7038L14.297 19.6961ZM19.5043 8.84749C19.3552 8.87943 19.2854 8.89439 19.2164 8.90865L19.6215 10.8672C19.6991 10.8512 19.7769 10.8345 19.9233 10.8031L19.5043 8.84749ZM10.4071 10.8031C10.5535 10.8345 10.6314 10.8512 10.7089 10.8672L11.114 8.90865C11.0451 8.89439 10.9752 8.87943 10.8262 8.84749L10.4071 10.8031ZM19.2164 8.90865C16.5439 9.46145 13.7866 9.46145 11.114 8.90865L10.7089 10.8672C13.6487 11.4753 16.6818 11.4753 19.6215 10.8672L19.2164 8.90865ZM11.1683 25.1C12.2673 25.1 13.2821 24.5111 13.8273 23.5569L12.0908 22.5646C11.9017 22.8957 11.5496 23.1 11.1683 23.1V25.1ZM20.1538 21.6561C20.4215 22.352 19.9078 23.1 19.1622 23.1V25.1C21.3114 25.1 22.7921 22.944 22.0205 20.9381L20.1538 21.6561ZM20.1367 13.4554C19.8233 13.5599 19.4995 13.6607 19.2372 13.8226L20.2877 15.5245C20.2792 15.5297 20.293 15.5193 20.3754 15.4881C20.4617 15.4555 20.5776 15.4166 20.7691 15.3528L20.1367 13.4554ZM20.275 16.3998C20.2025 16.2113 20.1588 16.0972 20.1292 16.0098C20.1009 15.9264 20.1002 15.9091 20.1015 15.919L18.12 16.19C18.1617 16.4954 18.2897 16.8094 18.4083 17.1177L20.275 16.3998ZM19.2372 13.8226C18.4293 14.3213 17.9914 15.2493 18.12 16.19L20.1015 15.919C20.0801 15.7623 20.1531 15.6076 20.2877 15.5245L19.2372 13.8226ZM23.9652 11.3537C23.9652 11.8467 23.6498 12.2844 23.1821 12.4403L23.8145 14.3376C25.0989 13.9095 25.9652 12.7076 25.9652 11.3537H23.9652ZM8.30993 20.9381C7.53841 22.944 9.0191 25.1 11.1683 25.1V23.1C10.4227 23.1 9.90895 22.352 10.1766 21.6561L8.30993 20.9381ZM9.56133 15.3528C9.75288 15.4166 9.86878 15.4555 9.95509 15.4881C10.0375 15.5193 10.0512 15.5297 10.0427 15.5245L11.0933 13.8226C10.831 13.6607 10.5072 13.5599 10.1938 13.4554L9.56133 15.3528ZM11.9221 17.1177C12.0407 16.8094 12.1687 16.4954 12.2105 16.19L10.2289 15.919C10.2303 15.9091 10.2296 15.9264 10.2013 16.0098C10.1716 16.0972 10.1279 16.2113 10.0554 16.3998L11.9221 17.1177ZM10.0427 15.5245C10.1774 15.6076 10.2504 15.7623 10.2289 15.919L12.2105 16.19C12.3391 15.2493 11.9011 14.3213 11.0933 13.8226L10.0427 15.5245ZM4.36523 11.3537C4.36523 12.7076 5.23155 13.9095 6.51592 14.3376L7.14838 12.4403C6.68069 12.2844 6.36523 11.8467 6.36523 11.3537H4.36523ZM6.36523 11.3537C6.36523 10.6246 7.03756 10.081 7.75054 10.2338L8.1696 8.27822C6.2116 7.85865 4.36523 9.35127 4.36523 11.3537H6.36523ZM16.5032 23.5569C17.0484 24.5111 18.0632 25.1 19.1622 25.1V23.1C18.7809 23.1 18.4288 22.8957 18.2396 22.5646L16.5032 23.5569ZM25.9652 11.3537C25.9652 9.35127 24.1189 7.85865 22.1609 8.27822L22.5799 10.2338C23.2929 10.081 23.9652 10.6246 23.9652 11.3537H25.9652Z" fill="#C7C7C7"/>
<path d="M25.6012 18.5C27.818 19.6146 29.166 21.0865 29.166 22.7C29.166 26.1794 22.898 29 15.166 29C7.43403 29 1.16602 26.1794 1.16602 22.7C1.16602 21.0865 2.514 19.6146 4.73085 18.5" stroke="#C7C7C7" stroke-width="2" stroke-linecap="round"/>
</g>
<defs>
<clipPath id="clip0_10183_7776">
<rect width="30" height="30" fill="white" transform="translate(0.166016)"/>
</clipPath>
</defs>
</svg>
