<svg width="31" height="30" viewBox="0 0 31 30" fill="none" xmlns="http://www.w3.org/2000/svg">
<g clip-path="url(#clip0_10183_73002)">
<path d="M6.0332 10.1205C6.0332 5.08338 10.4208 1 15.8332 1C21.2456 1 25.6332 5.08338 25.6332 10.1205C25.6332 15.1181 22.5054 20.9499 17.6253 23.0354C16.4877 23.5215 15.1787 23.5215 14.0411 23.0354C9.16103 20.9499 6.0332 15.1181 6.0332 10.1205Z" stroke="#C7C7C7" stroke-width="2"/>
<path d="M18.6332 10.8C18.6332 12.3464 17.3796 13.6 15.8332 13.6C14.2868 13.6 13.0332 12.3464 13.0332 10.8C13.0332 9.2536 14.2868 8 15.8332 8C17.3796 8 18.6332 9.2536 18.6332 10.8Z" stroke="#C7C7C7" stroke-width="2"/>
<path d="M28.3787 19.9C29.3102 20.7435 29.834 21.6942 29.834 22.7C29.834 26.1794 23.566 29 15.834 29C8.102 29 1.83398 26.1794 1.83398 22.7C1.83398 21.6942 2.35775 20.7435 3.28924 19.9" stroke="#C7C7C7" stroke-width="2" stroke-linecap="round"/>
</g>
<defs>
<clipPath id="clip0_10183_73002">
<rect width="30" height="30" fill="white" transform="translate(0.833984)"/>
</clipPath>
</defs>
</svg>
