<svg width="31" height="30" viewBox="0 0 31 30" fill="none" xmlns="http://www.w3.org/2000/svg">
<g clip-path="url(#clip0_4106_46568)">
<path d="M1.5 15.2C1.5 9.92027 1.5 7.2804 3.1402 5.6402C4.7804 4 7.42027 4 12.7 4H18.3C23.5797 4 26.2196 4 27.8598 5.6402C29.5 7.2804 29.5 9.92027 29.5 15.2C29.5 20.4797 29.5 23.1196 27.8598 24.7598C26.2196 26.4 23.5797 26.4 18.3 26.4H12.7C7.42027 26.4 4.7804 26.4 3.1402 24.7598C1.5 23.1196 1.5 20.4797 1.5 15.2Z" stroke="#C7C7C7" stroke-width="2"/>
<path d="M12.6996 20.8H7.09961" stroke="#C7C7C7" stroke-width="2" stroke-linecap="round"/>
<path d="M18.2992 20.8H16.1992" stroke="#C7C7C7" stroke-width="2" stroke-linecap="round"/>
<path d="M1.5 12.4L29.5 12.4" stroke="#C7C7C7" stroke-width="2" stroke-linecap="round"/>
</g>
<defs>
<clipPath id="clip0_4106_46568">
<rect width="30" height="30" fill="white" transform="translate(0.5)"/>
</clipPath>
</defs>
</svg>
