<svg width="30" height="30" viewBox="0 0 30 30" fill="none" xmlns="http://www.w3.org/2000/svg">
<path fill-rule="evenodd" clip-rule="evenodd" d="M23.436 9.17725C23.5207 9.15063 23.6321 9.20387 23.7435 9.35029C23.7435 9.35029 23.7435 9.35029 28.7793 14.2575C29.0734 14.5504 29.0734 14.994 28.7793 15.2115C28.7793 15.2115 28.7793 15.2115 23.7435 20.1941C23.6321 20.3405 23.5207 20.376 23.436 20.3316C23.3513 20.2873 23.2979 20.1586 23.2979 19.9723V9.49671C23.2979 9.31479 23.3513 9.20387 23.436 9.17725Z" fill="#C7C7C7"/>
<path fill-rule="evenodd" clip-rule="evenodd" d="M14.8219 1H15.1784L15.5215 1.14198C15.5215 1.14198 15.5215 1.14198 20.7044 6.27105C20.9272 6.56389 20.8515 6.78573 20.4816 6.78573C20.4816 6.78573 20.4816 6.78573 18.3336 6.78573C17.9637 6.78573 17.6696 7.07857 17.6696 7.44684C17.6696 7.44684 17.6696 7.44683 17.6696 11.2537C17.6696 11.622 17.371 11.9148 16.9253 11.9148C16.9253 11.9148 16.9253 11.9148 13.1507 11.9148C12.7808 11.9148 12.4822 11.622 12.4822 11.2537C12.4822 11.2537 12.4822 11.2537 12.4822 7.44684C12.4822 7.07857 12.1881 6.78573 11.8138 6.78573H9.51867C9.14878 6.78573 9.07302 6.56389 9.29585 6.27105C9.29585 6.27105 9.29585 6.27105 14.4832 1.14198L14.8219 1Z" fill="#C7C7C7"/>
<path fill-rule="evenodd" clip-rule="evenodd" d="M6.70206 9.06633C6.79564 9.1107 6.85358 9.23937 6.85358 9.42572V20.1187C6.85358 20.305 6.79564 20.416 6.70206 20.4515C6.61293 20.4869 6.48369 20.4515 6.33217 20.3405C6.33217 20.3405 6.33217 20.3405 1.2206 15.2115C0.926468 14.9941 0.926468 14.5504 1.2206 14.2575C1.2206 14.2575 1.2206 14.2575 6.33217 9.20388C6.48369 9.05746 6.61293 9.02196 6.70206 9.06633Z" fill="#C7C7C7"/>
<path fill-rule="evenodd" clip-rule="evenodd" d="M13.1501 17.4832C13.1501 17.4832 13.1501 17.4832 16.9248 17.4832C17.3704 17.4832 17.669 17.776 17.669 18.1443C17.669 18.1443 17.669 18.1443 17.669 22.173C17.669 22.6122 17.9631 22.9051 18.333 22.9051H20.334C20.7038 22.9051 20.8509 23.1225 20.5568 23.3443C20.5568 23.3443 20.5568 23.3443 15.521 28.398C15.3694 28.5444 15.1867 28.6198 14.9996 28.6198C14.8168 28.6198 14.6297 28.5444 14.4826 28.398C14.4826 28.398 14.4826 28.398 9.4468 23.3443C9.14821 23.1225 9.29528 22.9051 9.66516 22.9051C9.66516 22.9051 9.66516 22.9051 11.8132 22.9051C12.1875 22.9051 12.4817 22.6122 12.4817 22.173C12.4817 22.173 12.4817 22.173 12.4817 18.1443C12.4817 17.776 12.7802 17.4832 13.1501 17.4832Z" fill="#C7C7C7"/>
</svg>
