<svg width="26" height="25" viewBox="0 0 26 25" fill="none" xmlns="http://www.w3.org/2000/svg">
<path d="M18.6822 1.13635H7.31854C4.18056 1.13635 1.63672 3.68019 1.63672 6.81817V18.1818C1.63672 21.3198 4.18056 23.8636 7.31854 23.8636H18.6822C21.8202 23.8636 24.364 21.3198 24.364 18.1818V6.81817C24.364 3.68019 21.8202 1.13635 18.6822 1.13635Z" fill="#E20531"/>
<path d="M13.7202 19.3181C13.8858 19.3181 14.0202 19.1838 14.0202 19.0181V13.1081H15.7742C15.9257 13.1081 16.0534 12.9951 16.072 12.8448L16.2981 11.0134C16.3201 10.8345 16.1806 10.6766 16.0003 10.6766H14.0202V9.12789C14.0202 8.42626 14.2086 7.94588 15.1792 7.94588H16.109C16.2747 7.94588 16.409 7.81157 16.409 7.64588V6.04661C16.409 5.89375 16.2941 5.76502 16.1419 5.75073C15.6318 5.7028 15.1197 5.67982 14.6073 5.68189C12.8224 5.68189 11.597 6.81237 11.597 8.8877V10.6721H9.89082C9.72513 10.6721 9.59082 10.8064 9.59082 10.9721V12.8035C9.59082 12.9692 9.72513 13.1035 9.89082 13.1035H11.6014V19.0181C11.6014 19.1838 11.7357 19.3181 11.9014 19.3181H13.7202Z" fill="white"/>
</svg>
