<svg width="26" height="25" viewBox="0 0 26 25" fill="none" xmlns="http://www.w3.org/2000/svg">
<path d="M18.6822 1.13635H7.31854C4.18056 1.13635 1.63672 3.68019 1.63672 6.81817V18.1818C1.63672 21.3198 4.18056 23.8636 7.31854 23.8636H18.6822C21.8202 23.8636 24.364 21.3198 24.364 18.1818V6.81817C24.364 3.68019 21.8202 1.13635 18.6822 1.13635Z" fill="#E20531"/>
<path d="M17.5457 11.7837C17.6859 12.7295 17.5244 13.6954 17.084 14.544C16.6437 15.3926 15.947 16.0808 15.093 16.5106C14.239 16.9405 13.2712 17.0901 12.3272 16.9382C11.3833 16.7863 10.5113 16.3407 9.83524 15.6646C9.1592 14.9886 8.71353 14.1166 8.56164 13.1726C8.40975 12.2287 8.55936 11.2609 8.98921 10.4069C9.41905 9.5529 10.1072 8.85618 10.9559 8.41584C11.8045 7.9755 12.7704 7.81396 13.7161 7.9542C14.6808 8.09725 15.5739 8.54677 16.2635 9.23637C16.9531 9.92596 17.4026 10.8191 17.5457 11.7837Z" fill="white"/>
<path d="M19.25 6.25H19.2626" stroke="white" stroke-width="1.5" stroke-linecap="round" stroke-linejoin="round"/>
</svg>
