<svg width="60" height="60" viewBox="0 0 60 60" fill="none" xmlns="http://www.w3.org/2000/svg">
<rect width="60" height="60" fill="#1C1B22"/>
<path d="M21.5762 36.9111H24.0929L32.0285 23.0889H29.5117L21.5762 36.9111Z" fill="#E20531"/>
<path d="M25.917 36.9111H28.4312L36.3668 23.0889H33.8525L25.917 36.9111Z" fill="#E20531"/>
<path d="M9 25.3106C9.21265 26.1362 9.92815 26.9818 10.9088 27.1919H13.8759L14.026 27.252V34.7372H15.8773V27.252L16.0449 27.1919H19.012C20.0027 26.9367 20.7032 26.1362 20.9133 25.3106V25.2931H9V25.3106Z" fill="white"/>
<path d="M40.77 25.3004H40.7625L41.8708 27.1041H41.9108C42.2361 27.1041 44.365 27.1742 45.1781 27.3243L45.1931 27.3268C47.6148 27.7571 48.7756 28.7453 48.7756 29.9261C48.7756 29.9561 48.7781 29.9862 48.7756 30.0137C48.7756 30.0437 48.7756 30.0712 48.7756 30.1012C48.7756 31.6623 46.7442 32.8882 42.4512 32.9307C42.3787 32.9307 40.5224 32.9307 40.5224 32.9307V31.3021V31.0919V29.088L38.6836 25.9809C38.6836 26.231 38.6836 26.121 38.6836 26.3711V29.9211V33.6812C38.6836 34.009 38.6836 34.3367 38.6836 34.6644C38.6836 34.6944 38.6836 34.7144 38.6836 34.752H41.0302H43.8797H43.9823C44.2875 34.7245 44.5927 34.7044 44.8954 34.6694C44.9955 34.6569 45.0931 34.6444 45.1931 34.6319V34.6194C45.6459 34.5543 46.0862 34.4643 46.509 34.3467C46.5716 34.3292 46.6341 34.3117 46.6967 34.2917C46.8118 34.2566 46.9243 34.2216 47.0369 34.1841C47.1095 34.1591 47.182 34.134 47.2521 34.109C47.3847 34.0615 47.5147 34.009 47.6448 33.9539C47.6774 33.9414 47.7099 33.9264 47.7399 33.9139C48.7406 33.4811 49.5737 32.8957 50.1416 32.2202C50.1741 32.1802 50.2066 32.1402 50.2391 32.1001C50.2441 32.0951 50.2466 32.0901 50.2516 32.0851C50.762 31.4447 51.0122 30.7542 50.9997 30.0112C51.0147 29.2707 50.762 28.5777 50.2516 27.9372C50.2466 27.9322 50.2441 27.9272 50.2391 27.9222C50.2066 27.8822 50.1741 27.8422 50.1416 27.8021C49.5737 27.1242 48.7406 26.5413 47.7399 26.1085C47.7074 26.0959 47.6774 26.0809 47.6448 26.0684C47.5172 26.0134 47.3847 25.9634 47.2521 25.9133C47.182 25.8883 47.1095 25.8633 47.0369 25.8383C46.9243 25.8007 46.8118 25.7657 46.6967 25.7307C46.6341 25.7132 46.5716 25.6932 46.509 25.6757C45.9962 25.5331 45.4558 25.428 44.8979 25.3654C43.632 25.2203 42.3111 25.2829 41.0327 25.2829H40.7675L40.77 25.3004Z" fill="white"/>
</svg>
