<svg width="26" height="25" viewBox="0 0 26 25" fill="none" xmlns="http://www.w3.org/2000/svg">
<path fill-rule="evenodd" clip-rule="evenodd" d="M19.8527 2.62508L20.6371 2.64385C23.3351 2.70841 25.5 4.6728 25.5 7.08666V18.1978C25.5 20.6116 23.3351 22.576 20.6371 22.6406L19.8527 22.6593C19.8497 22.6594 20.7093 22.6367 20.3654 22.6458C19.5898 22.6663 15.6323 22.7672 13 22.7672C10.3677 22.7672 6.41019 22.6663 5.63455 22.6458C5.29067 22.6367 6.15036 22.6594 6.14728 22.6593L5.36292 22.6406C2.66487 22.576 0.5 20.6116 0.5 18.1978V7.08666C0.5 4.6728 2.66487 2.7084 5.36292 2.64385L6.14726 2.62508C6.14726 2.62508 5.71237 2.63656 5.58673 2.63988L5.63455 2.63862C6.41019 2.61814 10.3677 2.51721 13 2.51721C15.6323 2.51721 19.5898 2.61814 20.3655 2.63862L20.4119 2.63984C20.2845 2.63648 19.8527 2.62508 19.8527 2.62508Z" fill="#E20531"/>
<path d="M15.9408 12.4636C16.4039 12.7337 16.4039 13.4027 15.9408 13.6729L11.2119 16.4314C10.7452 16.7036 10.1592 16.367 10.1592 15.8268L10.1592 10.3097C10.1592 9.76941 10.7452 9.43281 11.2119 9.70502L15.9408 12.4636Z" fill="white"/>
</svg>
