<svg width="20" height="20" viewBox="0 0 20 20" fill="none" xmlns="http://www.w3.org/2000/svg">
<g clip-path="url(#clip0_4106_49693)">
<path d="M1.23346 12.0455C1.08074 11.3883 1 10.7036 1 10C1 9.2964 1.08074 8.61167 1.23346 7.95455M8.36364 1.1484C8.89427 1.05093 9.44119 1 10 1C14.9706 1 19 5.02944 19 10C19 14.9706 14.9706 19 10 19C9.44119 19 8.89427 18.9491 8.36364 18.8516M5.5 2.20404C4.27242 2.91416 3.22814 3.90589 2.45549 5.09091M2.45549 14.9091C3.22814 16.0941 4.27242 17.0858 5.5 17.796M12.7 8.2L9.15925 11.7408C9.12586 11.7741 9.07236 11.776 9.03667 11.7451L7.3 10.2405" stroke="#E20531" stroke-width="1.5" stroke-linecap="round"/>
</g>
<defs>
<clipPath id="clip0_4106_49693">
<rect width="20" height="20" fill="white"/>
</clipPath>
</defs>
</svg>
