<svg width="20" height="20" viewBox="0 0 20 20" fill="none" xmlns="http://www.w3.org/2000/svg">
<g clip-path="url(#clip0_4106_38486)">
<path fill-rule="evenodd" clip-rule="evenodd" d="M15.6243 6.11804C15.6808 6.1003 15.7551 6.13579 15.8293 6.2334C15.8293 6.2334 15.8293 6.2334 19.1865 9.50489C19.3826 9.70011 19.3826 9.99591 19.1865 10.1408C19.1865 10.1408 19.1865 10.1408 15.8293 13.4626C15.7551 13.5602 15.6808 13.5839 15.6243 13.5543C15.5679 13.5247 15.5322 13.439 15.5322 13.3147V6.33102C15.5322 6.20974 15.5679 6.13579 15.6243 6.11804Z" fill="#E20531"/>
<path fill-rule="evenodd" clip-rule="evenodd" d="M9.88157 0.666626H10.1193L10.348 0.761281C10.348 0.761281 10.348 0.76128 13.8033 4.18066C13.9518 4.37589 13.9013 4.52378 13.6547 4.52378C13.6547 4.52378 13.6547 4.52378 12.2227 4.52378C11.9761 4.52378 11.78 4.71901 11.78 4.96452C11.78 4.96452 11.78 4.96452 11.78 7.50243C11.78 7.74794 11.581 7.94316 11.2839 7.94316C11.2839 7.94316 11.2839 7.94316 8.76746 7.94316C8.52086 7.94316 8.32181 7.74794 8.32181 7.50243C8.32181 7.50243 8.32181 7.50243 8.32181 4.96452C8.32181 4.71901 8.12572 4.52378 7.87616 4.52378H6.34611C6.09951 4.52378 6.04901 4.37589 6.19756 4.18066C6.19756 4.18066 6.19756 4.18066 9.65578 0.761281L9.88157 0.666626Z" fill="#E20531"/>
<path fill-rule="evenodd" clip-rule="evenodd" d="M4.46836 6.04414C4.53075 6.07372 4.56938 6.1595 4.56938 6.28373V13.4124C4.56938 13.5366 4.53075 13.6106 4.46836 13.6342C4.40894 13.6579 4.32279 13.6342 4.22177 13.5603C4.22177 13.5603 4.22177 13.5603 0.814056 10.1409C0.617971 9.99595 0.617971 9.70016 0.814056 9.50493C0.814056 9.50493 0.814056 9.50493 4.22177 6.13584C4.32279 6.03822 4.40894 6.01456 4.46836 6.04414Z" fill="#E20531"/>
<path fill-rule="evenodd" clip-rule="evenodd" d="M8.76675 11.6554C8.76675 11.6554 8.76675 11.6554 11.2832 11.6554C11.5803 11.6554 11.7793 11.8506 11.7793 12.0961C11.7793 12.0961 11.7793 12.0961 11.7793 14.7819C11.7793 15.0748 11.9754 15.27 12.222 15.27H13.556C13.8026 15.27 13.9006 15.4149 13.7045 15.5628C13.7045 15.5628 13.7045 15.5628 10.3473 18.9319C10.2463 19.0295 10.1245 19.0798 9.99971 19.0798C9.8779 19.0798 9.75312 19.0295 9.65508 18.9319C9.65508 18.9319 9.65508 18.9319 6.29787 15.5628C6.09881 15.4149 6.19685 15.27 6.44344 15.27C6.44344 15.27 6.44344 15.27 7.87546 15.27C8.12502 15.27 8.3211 15.0748 8.3211 14.7819C8.3211 14.7819 8.3211 14.7819 8.3211 12.0961C8.3211 11.8506 8.52016 11.6554 8.76675 11.6554Z" fill="#E20531"/>
</g>
<defs>
<clipPath id="clip0_4106_38486">
<rect width="20" height="20" fill="white"/>
</clipPath>
</defs>
</svg>
